<?xml version="1.0" encoding="utf-8"?>
<!-- Generator: Adobe Illustrator 21.0.0, SVG Export Plug-In . SVG Version: 6.00 Build 0)  -->
<svg width="70px" height="70px" version="1.1" id="Layer_1" xmlns="http://www.w3.org/2000/svg" xmlns:xlink="http://www.w3.org/1999/xlink" x="0px" y="0px"
	 viewBox="0 0 1000 1000" style="enable-background:new 0 0 1000 1000;" xml:space="preserve">
<style type="text/css">
	.st0{fill:#FFFFFF;}
</style>
<g>
	<g id="_x33_e91140ac1bfb9903b91c1b0ca0929ce">
		<path class="st0" d="M933.4,263.3c-6.6,26.2-20,48.4-47.7,58.3c-13.6,4.8-22.3-0.1-36.2-4.1c13.6,1.3,21.4,3.4,33.6-2.6
			C905.9,303.6,922.6,285.2,933.4,263.3z M988.8,435.4c-3.2,31.7-11.7,62.6-26.8,88.7c-13.5,23.4-32.3,43.1-57.4,56.6
			c-17,9.1-36.8,14.3-57.3,16.5c-21.3,2.2-43.2,1-63.7-2.4c-1,3.2-1.9,6.4-2.9,9.5c-1.2,4-2.4,8-3.6,11.9
			c-4.2,13.7-14.2,26.1-26.6,35.3c-12.8,9.5-28.5,15.7-43.1,16.3c-13.9,0.7-24.7-2.6-34.3-8.3c-9.3-5.4-17.2-13-25.8-21.3l-11.3-11
			c-2.5-2.5-5.1-4.9-7.6-7.4c-0.3,1.8-0.5,3.5-0.8,5c4,8.1,6.8,15.6,9.7,23.4l0,0c1.8,4.8,3.7,9.8,5.9,15.2c3.3,8,5.9,14.6,7.6,21.5
			c1.8,7,2.7,14,2.9,22.7c0.2,7.4,0.4,14.8,0.6,22.2c0.2,7,0.4,13.9,0.6,20.9c3.1,5.6,4.9,9.4,5.8,13.6c1,4.5,0.9,8.9,0.4,16.1
			c-1.1,16.1-6.5,25.1-15.4,30.2c-8.4,4.8-19.5,5.5-33.2,5.4c-2.1,0-5.5,0-9.6,0c-13.3,0-34,0-40.3-0.4c-8.5-0.6-15.5-1.3-21.4-2.7
			c-4.6-1.1-8.3-2.7-11.4-5c-4.6,3.7-8.6,7-12.6,10.3c-11.8,9.8-23.9,19.7-28.7,22.9c-1.9,2.9-3.5,5.7-5.1,8.4
			c-5,8.7-8.6,15.1-20.4,21.5c-23,12.4-40.8,11.3-56.4,1.8c-14.9-9.1-27.2-25.9-40-45.7c-6.1-9.4-15.9-24.9-20.6-40.1
			c-5.3-16.8-4.5-33.2,12.2-41.8c0.8-0.4,1.6-0.8,2.4-1.2c1.7-0.9,3.4-1.7,5-2.6c-6.4,0.3-12.7,0.6-19.1,0.5
			c-12.5-0.1-25-0.9-37.8-2.6c0.2,1.5,0.4,2.7,0.5,3.5c1,8.5,1.7,14,0.8,19.6c-0.8,5.7-3.1,10.8-7.9,18.1c-0.3,0.5-1.4,2.1-2.3,3.4
			c-4.5,6.6-7.1,10.6-13.3,24.2c0.6,6.7,0.8,12.2,0.4,17.6c-0.5,5.8-1.7,11.7-3.8,19.5c-5.3,19.5-24.9,24-46.6,22.6
			c-19.9-1.2-41.8-7.5-54.4-10.9c-2.7-0.7-5-1.3-7.1-1.9c-10.6-2.8-22.1-5.8-31.8-10.2c-19.3-8.8-31.7-22.7-19.7-49.2
			c1.9-4.2,3.6-8.5,5.2-12.8c0.6-1.5,1-3,1.5-4.5c-9.8,1.5-20.3-0.3-30.5-4.2c-17.8-6.8-34.8-19.7-45.2-30.1
			c-8.3-8.3-14.8-17.3-19.6-26.5c-5.2-10-8.6-20.3-10.3-30.5c-2.8-16.7-0.8-18.6,9-28c1.5-1.4,3.1-3,3.5-3.4
			c4.9-4.8,9.7-9.6,14.6-14.4c5.2-5.1,10.4-10.3,15.6-15.5c2.4-6.4,4.7-12.8,7.1-19.3c1.5-4.1,3.1-8.3,4.6-12.4
			c-0.7-3.8-1.4-7.7-1.9-11.7c-0.6-4.6-1.1-8.9-1.5-12.7c-1.5-17.6-2-32.8-1.5-46.5c0.4-10.5,1.4-20.1,3-29.3
			c-8.1,1.8-16.4,1.7-24-0.7c-9.3-3-17.4-9.4-22.4-20c-1.9-3.9-3.4-7.8-4.8-12.2c-1.2-3.9-2.4-8.2-3.6-13.2
			c-6.7-6.9-10.4-14.1-11.7-21.4c-1.5-8.5,0.2-16.9,4-25c3.6-7.8,9.2-15.2,15.6-21.9c17.4-18,42.1-31.6,53.5-33.6l8.6-1.5l-2.9,8.3
			c-1.5,4.2-3.2,8.6-4.9,12.9c-0.5,1.3-1,2.5-1.5,3.9c5.3,4.2,8.5,10,9.9,16.6c2.3,10.2,0.8,22-1.2,30.8L89.5,427l-6.7-8.4
			c-1.6-2-3-4.1-4.3-6.1c-1.2-1.8-2.3-3.6-3.5-5c-0.9,13.7-2.6,27.4-12.3,36.8c0.3,1.2,0.4,1.8,0.6,1.9c0.2,0.1,1.8-0.8,5.8-2.4
			c6.9-2.6,13-7,18.7-12.1c5.9-5.3,11.3-11.4,16.8-17.4c6.2-12,13.3-23.4,21.5-34.2c8.4-11,18-21.4,29.1-31.3
			c27.2-24.1,53.6-40.1,83.6-51.7c29.4-11.3,62.1-18.5,102.3-24.9c5.1-5.2,10.2-10.4,15.5-15.6c5.7-5.4,11.5-10.8,17.6-16.3
			c8.6-7.6,15.8-12.2,22.9-15c6.4-2.6,12.8-3.6,20-4.2c12.3-16.4,23.5-30.4,36.6-42.6c13.8-12.8,29.6-23.4,50.9-32.3
			c44.2-18.6,81.6-28.3,117-26.1c35.7,2.2,69,16.5,104.8,46c6.7,5.6,13.6,11.6,20.5,17.6c15,13.2,29.7,26.1,47,36.9
			c6.5,4,12,7.5,17.5,11.7c5.4,4.1,10.3,8.7,15.5,14.8c6.2,7.5,11.9,14.9,16.9,22.9c4.2,6.7,7.9,13.8,11.1,21.5
			c7.3-3,15.1-6.2,21.3-11.4c5.4-4.6,9.8-11.1,14.3-17.6c4-5.9,8-11.7,12.7-16.4c1.5-1.6,3.3-2.9,5.2-3.9c7.3-3.8,16.5-3.2,25.3-0.2
			c8.2,2.8,16.2,7.8,21.6,13.2c2.5,2.4,4.5,5,5.8,7.6c10.9,20.8,18.7,49.6,23.4,79.4C989.9,375.4,991.3,410,988.8,435.4z
			 M836.7,298.7c-1.6,0-3.1,0.1-4.6,0.1c2.3,2.2,4,4.8,5.3,7.7c0.6-0.6,1.4-1.2,2.1-1.7C838.6,302.8,837.6,300.7,836.7,298.7z
			 M71.2,391.5c4-0.5,6.5,1.7,9.6,4.8c-0.6-7.4-2-12.9-7.2-16c-0.4,1.2-0.7,2.4-1,3.6C72,386.3,71.6,388.8,71.2,391.5z M87.2,472.4
			c0.4-1.3,0.8-2.6,1.2-4c2.5-8,5.2-15.7,8.1-23.2c-6.1,5.5-12.9,10.1-21.2,13.5c-21.4,8.6-21,1.2-30.2-17.4
			c19.6-15.6,10.5-34.8,16.8-56.4c1.5-5,3.6-9.8,6.5-16.2c-20.5,12.3-58.2,46.8-33,73c2.7,9.9,4.8,17.5,8.6,25.3
			C51.7,483,71.9,478.9,87.2,472.4z M143.9,733.6C122,700.5,102.2,661,90.6,620.9c-2.1,5.7-4.3,11.5-6.4,17.2
			c-9.8,9.9-19.6,19.8-29.4,29.8c-7.3,7.4-8.7,7.6-7.2,18.1c2,14.3,10.4,29.5,23,42.4c11.5,11.8,51.4,42.5,67,21.6
			c3.3-4.5,4.9-10,6.3-15.7C143.9,734,143.9,733.9,143.9,733.6z M625,670.9c-3.5-8.2-5.4-15.9-7.8-23.7
			c-5.2,18.6-12.2,36.2-18.6,56.3c-6,19.1-37.1,74.4-55.3,87.8c3.6,2.6,10.1,3.7,21.7,4.7c8.2,0.7,40.6,0.9,48.8,1
			c17.9,0.3,24.7-1,26.6-21.4c0.9-10,0.1-11.9-4.9-20.6c-0.4-15.6-0.9-31.3-1.3-46.9C633.7,693.3,630.8,684.7,625,670.9z
			 M947.2,277.9c-4.2-10.1-20.8-25.2-31.4-14.9c-10.7,10.4-18.7,25.1-30.4,34.3c-15.9,12.5-43.2,8.2-38.2,34.7
			c3.6,19.3,4.6,40.9,0.5,58.9c-3.9,17.3-8,41.8-17.1,53.4c2.7-9.8,7.1-35.4,8.4-52.6c0.7-9.4-0.4-20.8-2.1-32.3c-2,0-4,0.1-6,0.1
			c-7.3,0.1-19.1,10.6-22.3,17.1c-8.9,18.1-9.5,35-19.5,52.2c8-19.3,3.5-36.7,10.8-57.4c2.6-7.3,9.1-13.6,16.7-17.4
			c-4.2-0.6-8.4,1.2-14.6,2.7c-26.6,6.3-25.4,27.3-41.8,47.2c15.8-29,7.7-48.2,41.9-56c11.3-2.6,19.5-3.6,26.9,2.3
			c0.2,0,0.3,0,0.5,0c1.9-0.1,3.9-0.3,5.8-0.4c-1-5.3-2-10.5-3-15.5c-15.6-2-30.1-1.6-46.1,0.8c3.5-1.5,6.8-2.9,10.1-4.1
			c5.1-1.9,10.1-3.4,15-4.2c0.5-1,0.8-2.1,0.9-3.2c0.5-5.4-3.5-10.2-8.9-10.8c-5.4-0.5-10,3.5-10.6,8.9c-0.2,2.1,0.6,4.7,1.8,6.8
			c-0.3-0.5-0.5-0.9-0.8-1.4l0,0c-2.1-4-3-8.6-2.6-13.3c0.4-3.6,1.5-6.9,3.2-9.9c-0.5,0.1-1.1,0.3-1.6,0.5c-3.8,1.5-11.9,1-15.6-0.2
			c7.2-1.2,17.9-5,24.8-8.4c0.2-0.1,0.4-0.2,0.5-0.3c4.3-2.7,9.5-4,14.9-3.5c2.7,0.3,5.3,1,7.7,2.1c3.2,0.9,6.8,2.2,11.2,3.8
			c-6.6-13.8-14-26.2-23-38.7c-8.5-11.8-15.6-15.9-28.1-23.3c-2.7-1.6-5.4-3.2-8-4.9c-9.3-1.7-19.6-3.4-28.5-1.7
			c7.3-2.9,12.9-4.1,19.3-4.6c-17.7-12.7-33-27-50.5-41.7c-67.5-56.8-122.1-52.7-208.1-15.4c-34.9,15.2-47.4,30.5-68.8,57.9
			c0.2,0,0.4,0,0.7,0c21.8-0.6,43.5-1.3,66-3.4c-23.2,5.4-45.4,9.7-68.2,13.2c-25.1,3.8-32.9,3.2-51.8,21.7
			c-34.9,34-64.2,72.4-96.2,106.9c-18.5,20-27.7,40-38.6,62.8c-10.8,22.6-9.3,31.2,5.2,50.8c14.8,20,23.7,29.1,30,46.9
			c16.3-25.2,36-46.1,56.8-71.2C327.5,480.4,312,506,298,533.6c-8.7,17.2-13,25.9-12.7,44.9c16.4,18.9,26.6,28.9,41.9,33.1
			c16.4,4.5,31.8,3.8,46.6-3.9c36.8-19.1,71.8-43.9,112.7-47.1c21.1-37.6,15.2-84.9,7.6-127.7c-6.3-35.6-4.7-66.9,3.8-102.6
			c2.1,34.6,4.9,66.8,11.8,100.7c10,49.7,12.1,92.7-8.8,144.1c-45.2,1.1-82.3,27.6-122.3,48c-18,9.2-34.9,10.1-55,5.4
			c-20.6-4.9-36.3-20.7-57.5-43.9c2.1-17.5,4.4-28.4,10.6-41.2c-7.5-22.7-16.9-33.2-34.2-56.4c-20-26.9-20.4-38.6-5.2-69.3
			c10.9-22.2,21.2-42.7,38.5-63c17-20.1,32.7-38.8,48.5-56.5c-65.7,10-107.7,25.8-152.6,65.2c-33.3,29.2-54.1,65.5-68.9,107.4
			c-9.4,26.4-12,53.1-7.6,96.3c5.7,55.7,35.3,118.6,67.1,164.5c-3.9,28.6-8.9,50.1-16.9,70.5c-9,23.1,26.9,30.2,44.3,35
			c14.1,3.9,67.7,18.6,73-0.4c3.2-11.4,3.2-19.3,2.4-31.3c9.5-19,12.4-21.6,19.3-32.8c7.3-12.1,7.9-16.9,8-31
			c0-18.3-0.4-50.9,0.3-62.6c2.5,10.5,5.4,25.2,7.8,39.3c38.1,6.8,75.8,6.3,113.9-1.5c0.5-2.7,1.4-5.6,2.3-9.1
			c2.5-8.9,7.7-17.8,10.2-26.7c-0.7,8.8-1.4,17.5-2.1,26.3c-0.7,9-0.7,16.3,0.4,25.3c0.6,5,1.2,9.9,1.8,14.9
			c-2.8-4.5-7-8.9-9.5-13.5c-16.9,11.1-26.3,17.5-42.9,26.2c-17.6,9.3,2.6,42.6,9.8,54.1c16,25.3,35,55.3,64.6,39.7
			c9.7-5.1,15.4-17,21.9-25.6c8.7-5.1,54.9-44,62.2-48.3c10.4-5.9,47.7-67.1,52.4-82.3c10.4-33.8,22.7-59.4,26.1-94.6
			c-23.7-10-35.3-21.1-52.3-41.1c23.9,17.7,44.6,27.2,70.4,35.4c9.4,8.3,18.9,16.7,28.7,25.4c14.3,12.7,27.4,25.7,48.2,26.1
			c22.4,0.4,47.8-16.8,54.3-38c2.5-8.2,5-16.4,7.5-24.6c-4.4-1.1-8.8-2.3-13-3.5c-4.7,11.2-4.3,15.5-6.5,23.7
			c-3.8,14-23.1,23.8-43.4,18.9c-7.2-1.7-11.4-2.7-14-4.6c2,5.5,6,10.2,13.4,11.6c8.2,1.5,14.2,2.2,26.1-0.5
			c-14.7,7.6-19.4,7.9-29.8,5.6c-27.4-6.1-17.7-39-11.8-59.2c3.7-12.7,2.5-26.2-0.4-38.9c10.4,6.6,18.6,12.3,30.4,16.3
			c55.3,18.6,120.8,37.6,176.5,6.5c43.6-24.3,67.5-78.4,72.9-127.8C973.5,390.5,965.3,321.7,947.2,277.9z M665.1,543.5
			c-1.1,6.9-2.6,15.3-3.6,22.2c2.9-7.8,6.4-16.7,9.8-24.1c3.6-7.8,5.6-8.5,13.1-12.7c5.4-2.9,15.2-7,20.5-9.9
			c-5.5,0.9-15.4,2.9-20.9,3.9C669.2,525.4,667.4,528.9,665.1,543.5z M412.8,279.4c-17.1,17-33.8,75.1-39.1,98.4
			c8.4-19.3,29.3-73.4,45.4-87.1c4.4-3.8,7.6-6.1,10.9-7.8c-11.5,19.3-10.7,24.1-6.6,50c3.4-26.3,12.6-36.5,27.5-56.1
			c16.4-4.1,31.7-9,48.5-15.6c-18.9,2.1-37.8,4.1-56.8,5.9C426.7,268.5,424.1,268.3,412.8,279.4z M697.2,343.8
			c-3.7-7.7-10.1-13.3-17.6-16c6.8-3.7,13.4-7.5,18.7-12.2c-15.2,7.1-33,5.3-46,14.2c-11.6,7.8-27.5,32.4-39.2,42.9
			c8.5-3.3,16.6-9,24.2-14.9c0.1,4.4,1.1,9,3,13.3c2.1,4.4,5.1,8,8.6,10.8c-1-1-1.9-2.1-2.5-3.5c-3.1-6.5-0.3-14.4,6.2-17.5
			c6.6-3.2,14.5-0.4,17.6,6.2c0.3,0.6,0.6,1.3,0.7,1.9c-6.3,4.7-12,10.1-16.8,16.5c-4.2,5.5-7.7,11.8-10.2,18.7
			c22.3-26.4,54.6-46.4,85-54.9c-8.5-0.1-18.6,1.5-28.8,4.8C699.7,350.6,698.7,347.1,697.2,343.8z M588.3,320
			c5.1-22.7,14.2-44.6,49.5-61.5C591.1,270.2,582.3,289.8,588.3,320z"/>
	</g>
</g>
</svg>
