<?xml version="1.0" encoding="utf-8"?>
<!-- Generator: Adobe Illustrator 21.0.0, SVG Export Plug-In . SVG Version: 6.00 Build 0)  -->
<svg width="110px" height="70px" version="1.1" id="Layer_1" xmlns="http://www.w3.org/2000/svg" xmlns:xlink="http://www.w3.org/1999/xlink" x="0px" y="0px"
	 viewBox="0 0 90 50" style="enable-background:new 0 0 90 50;" xml:space="preserve">
<style type="text/css">
	.st0{fill-rule:evenodd;clip-rule:evenodd;fill:#FFFFFF;}
	.st1{fill:#FFFFFF;}
</style>
<path class="st0" d="M81.6,25.1c-0.1-0.2-0.1-0.2-0.2-0.3c-1.1-2.1-2.2-4.2-3.3-6.3C78,18.3,78,18.2,78.2,18
	c1.8-2.1,3.5-4.1,5.3-6.2c0.1-0.1,0.1-0.1,0.1-0.3c-0.5,0.1-1,0.3-1.5,0.4c-2.1,0.6-4.2,1.1-6.4,1.7c-0.2,0.1-0.3,0-0.4-0.2
	c-1.2-2-2.4-4-3.6-6c-0.1-0.1-0.1-0.2-0.3-0.3c-0.1,0.5-0.2,1.1-0.3,1.6c-0.3,1.9-0.7,3.8-1,5.7c0,0.2-0.1,0.4-0.1,0.6
	c0,0.2-0.1,0.3-0.3,0.3c-2.5,0.8-5,1.6-7.5,2.4c-0.1,0-0.2,0.1-0.3,0.2c2,0.8,4.1,1.6,6.2,2.5c-0.1,0.1-0.1,0.1-0.2,0.1
	c-1.3,0.8-2.6,1.7-3.8,2.5c-0.2,0.1-0.3,0.1-0.4,0c-1.5-0.7-3.1-1.4-4.6-2c-0.7-0.3-1.3-0.7-1.8-1.3c-1.1-1.3-0.9-2.8,0.6-3.8
	c0.5-0.3,1-0.5,1.5-0.7c2.5-0.8,4.9-1.6,7.4-2.3c0.2-0.1,0.3-0.2,0.3-0.4c0.3-1.9,0.7-3.8,1-5.7c0.2-1,0.3-2.1,0.8-3
	c0.2-0.4,0.4-0.7,0.7-1c1-1.1,2.3-1.1,3.4-0.1c0.3,0.3,0.6,0.8,0.9,1.2c1.1,1.9,2.3,3.7,3.4,5.6c0.1,0.2,0.3,0.3,0.5,0.2
	c2.7-0.7,5.5-1.5,8.2-2.2c0.6-0.1,1.1-0.2,1.7-0.1c1.3,0.2,1.8,1.2,1.4,2.4c-0.2,0.6-0.5,1-0.9,1.5c-1.9,2.3-3.8,4.5-5.7,6.8
	c-0.2,0.2-0.2,0.3-0.1,0.5c1.1,2.2,2.3,4.3,3.4,6.5c0.3,0.5,0.5,1.1,0.5,1.6c0,1.4-1,2.5-2.3,2.7c-0.8,0.1-1.5-0.1-2.2-0.3
	c-1.7-0.5-3.4-1.1-5.2-1.6c-0.2,0-0.2-0.1-0.2-0.3c-0.2-1.2-0.4-2.4-0.6-3.6c0,0,0-0.1,0-0.1C77.6,24,79.5,24.6,81.6,25.1z"/>
<g>
	<g>
		<path class="st0" d="M78.2,42.8c-1.6,0-3.1,0-4.7,0c-0.2,0-0.3-0.1-0.4-0.2c-1.8-2.8-3.7-5.6-5.5-8.4c-0.1-0.1-0.1-0.2-0.2-0.3
			c-0.4,3-0.8,6-1.2,8.9c-1.4,0-2.7,0-4.1,0c0-0.4,0.1-0.8,0.1-1.2c0.4-3,0.8-6.1,1.2-9.1c0.4-2.9,0.8-5.8,1.1-8.7
			c0-0.1,0.1-0.2,0.1-0.2c1.4-0.9,2.8-1.8,4.2-2.7c0,0,0,0,0.1,0c-0.4,3.2-0.8,6.4-1.3,9.6c0,0,0,0,0,0c2.2-2.4,4.4-4.9,6.6-7.4
			c0.1,0.4,0.1,0.7,0.2,1c0.2,0.9,0.3,1.8,0.5,2.8c0,0.2,0,0.3-0.1,0.4c-1.4,1.5-2.8,3-4.3,4.5c-0.1,0.1-0.1,0.1-0.2,0.2
			c0,0.1,0.1,0.1,0.1,0.2c2.4,3.4,4.9,6.9,7.3,10.3C78.1,42.6,78.2,42.7,78.2,42.8C78.2,42.8,78.2,42.8,78.2,42.8z"/>
		<path class="st0" d="M19.4,41.7c-0.1,0.9-0.2,1.8-0.3,2.6c-0.1,1.1-0.3,2.3-0.4,3.4c0,0.1-0.1,0.2-0.2,0.2c-1.1,0-2.2,0-3.3,0
			c0,0-0.1,0-0.1,0c0.1-0.5,0.1-1.1,0.2-1.6c0.2-1.9,0.5-3.8,0.7-5.6c0.3-2.1,0.5-4.3,0.9-6.4c0.6-3.8,3.8-7,7.6-7.8
			c2.2-0.5,4.3-0.3,6.2,1c1.9,1.2,3,3,3.2,5.2c0.4,3.2-0.8,5.8-3.1,7.9c-1.5,1.4-3.2,2.3-5.3,2.6c-2.1,0.3-4.1,0-5.8-1.3
			C19.6,41.8,19.5,41.7,19.4,41.7z M30.1,33.9c-0.1-0.3-0.1-0.8-0.2-1.2c-0.7-2.1-2.8-3.2-5.1-2.7c-2.4,0.6-4.2,2.5-4.4,5
			c-0.2,1.8,0.8,3.6,2.7,4.3c1.5,0.5,2.9,0.3,4.3-0.5C29,37.7,30,36.1,30.1,33.9z"/>
		<path class="st0" d="M17.6,23.7c-1.3,0.9-2.5,1.8-3.7,2.7c-0.2-0.3-0.4-0.6-0.6-0.9c-0.5-0.7-1.2-1.3-2.1-1.3
			c-0.8-0.1-1.5,0.2-2,0.8c-0.5,0.5-0.5,1.3-0.1,1.8c0.5,0.6,1,1.3,1.6,1.9c0.9,1,1.9,1.9,2.8,2.9c0.8,0.9,1.5,1.9,1.7,3.2
			c0.2,1.5-0.1,2.9-0.8,4.2c-1.3,2.4-3.3,3.8-6,4.2C7.2,43.4,6,43.4,4.9,43c-1.5-0.5-2.6-1.5-3.3-2.9c-0.2-0.5-0.4-1-0.6-1.6
			c1.3-0.7,2.7-1.4,4-2.1c0,0.1,0.1,0.2,0.1,0.3c0.2,0.5,0.4,0.9,0.7,1.3c0.8,1.2,2.2,1.6,3.5,1c0.3-0.2,0.7-0.4,1-0.6
			c0.9-0.8,1-1.9,0.4-2.8c-0.4-0.6-0.8-1.1-1.3-1.6c-1.1-1.2-2.2-2.4-3.3-3.6c-0.7-0.8-1.2-1.8-1.4-3c-0.2-1.2,0.1-2.4,0.7-3.4
			c1.6-2.6,3.9-3.9,7-3.8c1.8,0.1,3.1,0.9,4.2,2.2C16.9,22.9,17.2,23.3,17.6,23.7z"/>
		<path class="st0" d="M47.3,37.6c-0.2,1.6-0.4,3-0.6,4.5c0,0.1-0.1,0.2-0.1,0.2c-3,1.4-7,1.2-9.5-1.6c-1.3-1.5-1.9-3.3-1.8-5.3
			c0.2-4.6,4-8.7,8.6-9.2c2.7-0.3,5,0.4,6.9,2.5c1.2,1.4,1.8,3.1,1.7,5c-0.1,1.2-0.2,2.5-0.4,3.7c-0.2,1.7-0.5,3.5-0.7,5.2
			c0,0.1,0,0.1,0,0.2c-1.2,0-2.4,0-3.6,0c0-0.4,0.1-0.8,0.1-1.2c0.3-2,0.6-4,0.8-6c0.1-1.3,0.1-2.5-0.5-3.7c-0.6-1.2-1.6-1.9-3-2
			c-2.8-0.3-5.4,1.6-6,4.4c-0.4,1.8,0.2,3.5,1.7,4.5c1.4,0.9,2.9,0.9,4.4,0.3C46,38.8,46.6,38.3,47.3,37.6z"/>
		<path class="st0" d="M62.5,26.5c-0.2,1.3-0.3,2.5-0.5,3.8c-0.8,0-1.5,0-2.3,0c-0.6,0-1.2,0.4-1.3,1c-0.1,0.2-0.1,0.5-0.1,0.7
			c-0.4,2.9-0.8,5.8-1.1,8.6c-0.1,0.7-0.2,1.5-0.3,2.2c-1.3,0-2.5,0-3.8,0c0.1-0.6,0.1-1.1,0.2-1.6c0.2-1.9,0.5-3.7,0.7-5.6
			c0.2-1.6,0.4-3.2,0.7-4.8c0.3-2.2,2.5-4.1,4.7-4.2C60.4,26.5,61.4,26.5,62.5,26.5z"/>
		<g>
			<path class="st1" d="M79.9,41.1v1.7h-0.3v-1.7H79v-0.3h1.5v0.3H79.9z M82.7,42.8v-1.6h0L82,42.8h-0.2l-0.6-1.6h0v1.6h-0.3v-1.9
				h0.5l0.6,1.4l0.6-1.4H83v1.9H82.7z"/>
		</g>
	</g>
	<g>
		<path class="st1" d="M23.7,22h-1.6l-0.5,1h-1.1l2.4-4.5H24l0.8,4.5h-1L23.7,22z M22.6,21.1h0.9l-0.2-1.4L22.6,21.1z"/>
		<path class="st1" d="M27.9,18.4h1.5c0.8,0,1.3,0.5,1.3,1.2c0,1-0.7,1.6-1.7,1.6h-0.6l-0.3,1.7h-0.9L27.9,18.4z M29.2,19.3h-0.6
			l-0.2,1h0.6c0.3,0,0.6-0.2,0.6-0.6C29.7,19.5,29.5,19.3,29.2,19.3z"/>
		<path class="st1" d="M35,22h-1.6l-0.5,1h-1.1l2.4-4.5h1.1l0.8,4.5h-1L35,22z M33.9,21.1h0.9l-0.2-1.4L33.9,21.1z"/>
		<path class="st1" d="M41.1,22.8c-0.3,0.1-0.7,0.2-1,0.2c-1.2,0-2-0.9-2-2c0-1.4,1.2-2.7,2.7-2.7c0.4,0,0.7,0.1,1,0.2l-0.1,1.1
			c-0.2-0.2-0.5-0.4-0.9-0.4c-0.8,0-1.6,0.7-1.6,1.6c0,0.7,0.4,1.2,1.1,1.2c0.4,0,0.8-0.2,1-0.4L41.1,22.8z"/>
		<path class="st1" d="M46.9,21.1h-2l-0.3,1.8h-0.9l0.8-4.5h0.9l-0.3,1.8h2l0.3-1.8h0.9l-0.8,4.5h-0.9L46.9,21.1z"/>
		<path class="st1" d="M50.4,22.9l0.8-4.5h2.5l-0.2,0.9h-1.6l-0.2,0.9h1.4l-0.2,0.9h-1.4L51.5,22H53l-0.2,0.9H50.4z"/>
	</g>
</g>
</svg>
